<svg width="250" height="20" viewBox="0 0 250 20" fill="none" xmlns="http://www.w3.org/2000/svg">
  <path d="M6 15.42C21.8333 13.0867 49.3 6.92 65 8.42C80.7 9.92 84.1667 15.5867 98.5 15.92C112.833 16.2533 125.667 11.2533 137 9.42C148.333 7.58667 167.333 9.42 184 13.42C200.667 17.42 229.5 15.2533 246 5.42L244.5 8.92C227.5 18.2533 200.167 20.42 184 16.42C167.833 12.42 148.833 10.0867 137 11.92C125.167 13.7533 113.333 18.92 98.5 18.42C83.6667 17.92 82.2 12.42 65 10.92C47.8 9.42 22.3333 15.2533 6 18.42L6 15.42Z" fill="url(#paint0_linear_pulse)"/>
  <defs>
    <linearGradient id="paint0_linear_pulse" x1="0" y1="0" x2="250" y2="20" gradientUnits="userSpaceOnUse">
      <stop stop-color="#F53F0F"/><stop offset="1" stop-color="#F97318"/>
    </linearGradient>
  </defs>
</svg>